<svg xmlns="http://www.w3.org/2000/svg" viewBox="0 0 32 32">
  <rect width="32" height="32" rx="7" fill="#111116"/>
  <g transform="translate(6.02 26.00) scale(0.01335 -0.01335)">
    <path fill="#ebe7e1" d="M485 1421V779Q584 870 664.0 909.0Q744 948 817 948Q935 948 997.5 873.0Q1060 798 1073 669L1120 243Q1124 199 1130.0 181.0Q1136 163 1151 154L1171 145Q1192 130 1203.5 113.5Q1215 97 1215 71Q1215 0 1138 0H765Q696 0 696 71Q696 112 731 135L752 146Q769 156 778.0 174.5Q787 193 782 239L745 567Q736 638 709.5 673.0Q683 708 629 708Q596 708 561.0 693.5Q526 679 487 643L485 641V243Q485 194 491.5 175.0Q498 156 514 146L536 135Q571 111 571 71Q571 0 501 0H132Q54 0 54 71Q54 97 65.5 114.0Q77 131 98 145L118 154Q134 163 142.0 180.5Q150 198 150 243V1172Q150 1211 140.5 1226.0Q131 1241 113 1249L85 1255Q41 1278 41 1319Q41 1370 110 1397L288 1465Q333 1483 360.5 1490.5Q388 1498 415 1498Q448 1498 466.5 1476.5Q485 1455 485 1421Z"/>
  </g>
  <circle cx="24.84" cy="24.2" r="1.9" fill="#5eaba8"/>
</svg>
